<svg width="1029" height="383" viewBox="0 0 1029 383" fill="none" xmlns="http://www.w3.org/2000/svg">
<g opacity="0.5">
<mask id="path-1-outside-1_94_614" maskUnits="userSpaceOnUse" x="-0.669189" y="-27.7178" width="1096" height="411" fill="black">
<rect fill="white" x="-0.669189" y="-27.7178" width="1096" height="411"/>
<path d="M190.555 381.154C150.471 381.154 116.303 374.091 88.0536 359.966C60.1855 345.46 38.8073 323.127 23.9188 292.968C9.0304 262.81 1.58619 224.444 1.58619 177.869C1.58619 109.154 18.1925 58.1894 51.4052 24.9767C84.9996 -8.61768 131.574 -25.4149 191.127 -25.4149C223.958 -25.4149 253.353 -19.8794 279.313 -8.80857C305.654 2.26231 326.269 18.8686 341.157 41.0104C356.427 62.7704 364.062 90.6385 364.062 124.615H298.782C298.782 103.618 294.392 86.0575 285.612 71.9326C276.831 57.8076 264.233 47.1185 247.818 39.8651C231.784 32.6118 213.078 28.9851 191.7 28.9851C164.977 28.9851 142.263 34.3297 123.557 45.0188C105.233 55.3262 91.2985 70.9781 81.7547 91.9747C72.5926 112.971 68.0115 139.694 68.0115 172.143V184.741C68.0115 217.19 72.5926 243.913 81.7547 264.91C91.2985 285.906 105.233 301.558 123.557 311.865C141.881 321.791 164.595 326.754 191.7 326.754C213.842 326.754 233.12 323.318 249.536 316.446C265.951 309.193 278.549 298.504 287.33 284.379C296.492 270.254 301.073 252.693 301.073 231.697H364.062C364.062 265.673 356.427 293.732 341.157 315.874C326.269 338.016 305.654 354.431 279.313 365.12C253.353 375.809 223.767 381.154 190.555 381.154ZM435.418 374.282V-18.5433H643.856C665.616 -18.5433 684.703 -14.5349 701.119 -6.51804C717.534 1.11705 730.323 12.1879 739.485 26.6946C749.029 41.2013 753.801 58.1894 753.801 77.6589C753.801 92.5473 750.938 106.1 745.211 118.316C739.867 130.532 732.232 140.839 722.306 149.238C712.762 157.636 701.882 163.935 689.666 168.135V170.425C703.791 173.479 716.389 179.206 727.46 187.604C738.912 195.621 747.884 206.31 754.374 219.672C761.245 232.651 764.681 248.303 764.681 266.627C764.681 291.441 759.145 311.865 748.075 327.899C737.385 343.933 723.07 355.767 705.127 363.402C687.185 370.656 666.761 374.282 643.856 374.282H435.418ZM499.552 319.31H638.702C656.263 319.31 670.578 314.729 681.649 305.566C693.102 296.023 698.828 280.752 698.828 259.756C698.828 247.158 696.347 236.469 691.384 227.688C686.803 218.526 679.741 211.655 670.197 207.074C660.653 202.111 648.628 199.629 634.121 199.629H499.552V319.31ZM499.552 145.802H628.967C641.183 145.802 651.682 143.512 660.462 138.93C669.242 134.349 675.923 127.86 680.504 119.461C685.467 111.062 687.948 101.709 687.948 91.402C687.948 72.696 682.795 58.9529 672.487 50.1725C662.562 41.0104 649.391 36.4294 632.976 36.4294H499.552V145.802ZM874.711 374.282C874.711 340.306 878.911 307.475 887.309 275.79C895.708 243.722 906.969 213.373 921.094 184.741C935.601 155.728 951.253 128.814 968.05 104C985.229 78.8041 1002.22 56.2806 1019.01 36.4294H815.157V-18.5433H1093.46V19.823C1080.1 35.8567 1066.16 53.6083 1051.65 73.0778C1037.15 92.1655 1023.21 112.589 1009.85 134.349C996.491 156.109 984.466 178.633 973.777 201.92C963.469 225.207 955.261 249.067 949.153 273.499C943.045 297.55 939.991 321.791 939.991 346.223V374.282H874.711Z"/>
</mask>
<path d="M88.0536 359.966L87.3212 361.373L87.3327 361.379L87.3443 361.385L88.0536 359.966ZM23.9188 292.968L25.3412 292.266V292.266L23.9188 292.968ZM51.4052 24.9767L50.2836 23.8551V23.8551L51.4052 24.9767ZM279.313 -8.80856L278.69 -7.34949L278.698 -7.34627L279.313 -8.80856ZM341.157 41.0104L339.841 41.8955L339.849 41.9086L339.859 41.9216L341.157 41.0104ZM364.062 124.615V126.201H365.648V124.615H364.062ZM298.782 124.615H297.196V126.201H298.782V124.615ZM285.612 71.9326L284.265 72.77V72.77L285.612 71.9326ZM247.818 39.8651L247.164 41.3104L247.177 41.316L247.818 39.8651ZM123.557 45.0188L124.334 46.4014L124.344 46.396L123.557 45.0188ZM81.7547 91.9747L80.3106 91.3183L80.3057 91.3292L80.3008 91.3403L81.7547 91.9747ZM81.7547 264.91L80.3008 265.544L80.3057 265.555L80.3106 265.566L81.7547 264.91ZM123.557 311.865L122.779 313.248L122.79 313.254L122.801 313.26L123.557 311.865ZM249.536 316.446L250.148 317.91L250.163 317.904L250.177 317.897L249.536 316.446ZM287.33 284.379L285.999 283.516L285.99 283.529L285.982 283.542L287.33 284.379ZM301.073 231.697V230.111H299.487V231.697H301.073ZM364.062 231.697H365.648V230.111H364.062V231.697ZM341.157 315.874L339.851 314.973L339.846 314.981L339.841 314.989L341.157 315.874ZM279.313 365.12L278.716 363.65L278.709 363.653L279.313 365.12ZM190.555 379.568C150.652 379.568 116.741 372.537 88.763 358.548L87.3443 361.385C115.866 375.646 150.289 382.74 190.555 382.74V379.568ZM88.786 358.559C61.2386 344.22 40.0915 322.145 25.3412 292.266L22.4965 293.671C37.523 324.109 59.1325 346.7 87.3212 361.373L88.786 358.559ZM25.3412 292.266C10.5938 262.393 3.17239 224.288 3.17239 177.869H-1.33514e-05C-1.33514e-05 224.599 7.46702 263.226 22.4965 293.671L25.3412 292.266ZM3.17239 177.869C3.17239 109.38 19.7255 58.8997 52.5268 26.0983L50.2836 23.8551C16.6596 57.4791 -1.33514e-05 108.927 -1.33514e-05 177.869H3.17239ZM52.5268 26.0983C85.7526 -7.12749 131.882 -23.8287 191.127 -23.8287V-27.0011C131.266 -27.0011 84.2465 -10.1079 50.2836 23.8551L52.5268 26.0983ZM191.127 -23.8287C223.779 -23.8287 252.957 -18.3239 278.69 -7.34952L279.935 -10.2676C253.749 -21.435 224.138 -27.0011 191.127 -27.0011V-23.8287ZM278.698 -7.34627C304.775 3.61365 325.137 20.0289 339.841 41.8955L342.473 40.1253C327.4 17.7084 306.532 0.910965 279.927 -10.2709L278.698 -7.34627ZM339.859 41.9216C354.895 63.349 362.476 90.8739 362.476 124.615H365.648C365.648 90.4031 357.959 62.1919 342.455 40.0993L339.859 41.9216ZM364.062 123.028H298.782V126.201H364.062V123.028ZM300.368 124.615C300.368 103.399 295.932 85.5297 286.959 71.0951L284.265 72.77C292.852 86.5853 297.196 103.837 297.196 124.615H300.368ZM286.959 71.0951C277.997 56.6778 265.142 45.7858 248.459 38.4143L247.177 41.316C263.325 48.4512 275.666 58.9375 284.265 72.77L286.959 71.0951ZM248.472 38.4199C232.193 31.0559 213.256 27.3989 191.7 27.3989V30.5713C212.9 30.5713 231.375 34.1677 247.164 41.3103L248.472 38.4199ZM191.7 27.3989C164.767 27.3989 141.767 32.7863 122.77 43.6416L124.344 46.396C142.759 35.8731 165.188 30.5713 191.7 30.5713V27.3989ZM122.779 43.6363C104.133 54.125 89.9797 70.0464 80.3106 91.3183L83.1987 92.631C92.6174 71.9099 106.332 56.5274 124.334 46.4013L122.779 43.6363ZM80.3008 91.3403C71.023 112.602 66.4253 139.56 66.4253 172.143H69.5977C69.5977 139.828 74.1621 113.34 83.2085 92.609L80.3008 91.3403ZM66.4253 172.143V184.741H69.5977V172.143H66.4253ZM66.4253 184.741C66.4253 217.324 71.023 244.282 80.3008 265.544L83.2085 264.275C74.1621 243.544 69.5977 217.056 69.5977 184.741H66.4253ZM80.3106 265.566C89.9797 286.838 104.133 302.759 122.779 313.248L124.334 310.483C106.332 300.357 92.6174 284.974 83.1987 264.253L80.3106 265.566ZM122.801 313.26C141.417 323.344 164.409 328.34 191.7 328.34V325.168C164.782 325.168 142.345 320.238 124.312 310.471L122.801 313.26ZM191.7 328.34C214.002 328.34 233.498 324.88 250.148 317.91L248.923 314.983C232.743 321.756 213.681 325.168 191.7 325.168V328.34ZM250.177 317.897C266.86 310.526 279.715 299.634 288.677 285.216L285.982 283.542C277.384 297.374 265.043 307.86 248.895 314.996L250.177 317.897ZM288.66 285.242C298.026 270.803 302.659 252.924 302.659 231.697H299.487C299.487 252.463 294.957 269.705 285.999 283.516L288.66 285.242ZM301.073 233.283H364.062V230.111H301.073V233.283ZM362.476 231.697C362.476 265.436 354.896 293.158 339.851 314.973L342.463 316.774C357.958 294.306 365.648 265.91 365.648 231.697H362.476ZM339.841 314.989C325.14 336.851 304.785 353.072 278.716 363.65L279.909 366.59C306.523 355.79 327.397 339.18 342.473 316.759L339.841 314.989ZM278.709 363.653C252.973 374.251 223.597 379.568 190.555 379.568V382.74C223.937 382.74 253.734 377.368 279.917 366.587L278.709 363.653ZM435.418 374.282H433.831V375.868H435.418V374.282ZM435.418 -18.5433V-20.1295H433.831V-18.5433H435.418ZM701.119 -6.51804L700.423 -5.09273L700.436 -5.08614L700.45 -5.0798L701.119 -6.51804ZM739.485 26.6946L738.144 27.5416L738.152 27.5541L738.16 27.5664L739.485 26.6946ZM745.211 118.316L743.775 117.642L743.766 117.661L743.758 117.68L745.211 118.316ZM722.306 149.238L721.282 148.027L721.27 148.037L721.258 148.047L722.306 149.238ZM689.666 168.135L689.151 166.635L688.08 167.003V168.135H689.666ZM689.666 170.425H688.08V171.705L689.331 171.976L689.666 170.425ZM727.46 187.604L726.501 188.868L726.525 188.886L726.55 188.904L727.46 187.604ZM754.374 219.672L752.947 220.365L752.959 220.389L752.972 220.414L754.374 219.672ZM748.075 327.899L746.769 326.998L746.762 327.008L746.755 327.019L748.075 327.899ZM705.127 363.402L705.722 364.873L705.735 364.867L705.748 364.862L705.127 363.402ZM499.552 319.31H497.966V320.896H499.552V319.31ZM681.649 305.566L682.661 306.788L682.665 306.785L681.649 305.566ZM691.384 227.688L689.965 228.398L689.983 228.434L690.003 228.469L691.384 227.688ZM670.197 207.074L669.465 208.481L669.487 208.493L669.51 208.504L670.197 207.074ZM499.552 199.629V198.043H497.966V199.629H499.552ZM499.552 145.802H497.966V147.388H499.552V145.802ZM660.462 138.93L661.196 140.337V140.337L660.462 138.93ZM680.504 119.461L679.138 118.654L679.125 118.678L679.112 118.701L680.504 119.461ZM672.487 50.1725L671.411 51.3381L671.435 51.3595L671.459 51.38L672.487 50.1725ZM499.552 36.4294V34.8432H497.966V36.4294H499.552ZM437.004 374.282V-18.5433H433.831V374.282H437.004ZM435.418 -16.9571H643.856V-20.1295H435.418V-16.9571ZM643.856 -16.9571C665.42 -16.9571 684.262 -12.9854 700.423 -5.09273L701.815 -7.94334C685.145 -16.0844 665.811 -20.1295 643.856 -20.1295V-16.9571ZM700.45 -5.0798C716.605 2.43428 729.154 13.307 738.144 27.5416L740.826 25.8476C731.492 11.0689 718.463 -0.20018 701.788 -7.95628L700.45 -5.0798ZM738.16 27.5664C747.513 41.7836 752.215 58.4604 752.215 77.6589H755.387C755.387 57.9184 750.545 40.619 740.81 25.8228L738.16 27.5664ZM752.215 77.6589C752.215 92.3389 749.393 105.658 743.775 117.642L746.648 118.989C752.483 106.541 755.387 92.7556 755.387 77.6589H752.215ZM743.758 117.68C738.508 129.68 731.017 139.789 721.282 148.027L723.331 150.449C733.446 141.89 741.226 131.384 746.665 118.952L743.758 117.68ZM721.258 148.047C711.872 156.307 701.174 162.502 689.151 166.635L690.182 169.635C702.591 165.369 713.652 158.966 723.354 150.429L721.258 148.047ZM688.08 168.135V170.425H691.252V168.135H688.08ZM689.331 171.976C703.239 174.983 715.622 180.615 726.501 188.868L728.419 186.34C717.156 177.796 704.343 171.976 690.001 168.875L689.331 171.976ZM726.55 188.904C737.768 196.756 746.567 207.23 752.947 220.365L755.8 218.979C749.2 205.39 740.057 194.486 728.369 186.305L726.55 188.904ZM752.972 220.414C759.696 233.115 763.095 248.499 763.095 266.627H766.267C766.267 248.107 762.794 232.188 755.775 218.929L752.972 220.414ZM763.095 266.627C763.095 291.208 757.613 311.293 746.769 326.998L749.38 328.8C760.678 312.437 766.267 291.675 766.267 266.627H763.095ZM746.755 327.019C736.239 342.792 722.168 354.427 704.506 361.943L705.748 364.862C723.972 357.107 738.532 345.073 749.394 328.779L746.755 327.019ZM704.533 361.932C686.81 369.096 666.594 372.696 643.856 372.696V375.868C666.928 375.868 687.559 372.215 705.722 364.873L704.533 361.932ZM643.856 372.696H435.418V375.868H643.856V372.696ZM499.552 320.896H638.702V317.723H499.552V320.896ZM638.702 320.896C656.547 320.896 671.246 316.235 682.661 306.788L680.638 304.344C669.911 313.222 655.978 317.723 638.702 317.723V320.896ZM682.665 306.785C694.609 296.831 700.414 281.023 700.414 259.756H697.242C697.242 280.482 691.595 295.214 680.634 304.348L682.665 306.785ZM700.414 259.756C700.414 246.952 697.892 235.979 692.765 226.908L690.003 228.469C694.802 236.959 697.242 247.364 697.242 259.756H700.414ZM692.803 226.979C688.059 217.491 680.733 210.372 670.883 205.644L669.51 208.504C678.748 212.938 685.547 219.562 689.965 228.398L692.803 226.979ZM670.928 205.666C661.094 200.552 648.797 198.043 634.121 198.043V201.216C648.458 201.216 660.212 203.669 669.465 208.481L670.928 205.666ZM634.121 198.043H499.552V201.216H634.121V198.043ZM497.966 199.629V319.31H501.138V199.629H497.966ZM499.552 147.388H628.967V144.216H499.552V147.388ZM628.967 147.388C641.38 147.388 652.142 145.06 661.196 140.337L659.728 137.524C651.221 141.963 640.987 144.216 628.967 144.216V147.388ZM661.196 140.337C670.244 135.616 677.159 128.905 681.897 120.221L679.112 118.701C674.687 126.814 668.24 133.083 659.728 137.524L661.196 140.337ZM681.87 120.268C686.985 111.611 689.534 101.977 689.534 91.402H686.362C686.362 101.442 683.949 110.514 679.138 118.654L681.87 120.268ZM689.534 91.402C689.534 72.4169 684.297 58.1493 673.516 48.965L671.459 51.38C681.292 59.7565 686.362 72.9752 686.362 91.402H689.534ZM673.563 49.007C663.284 39.5188 649.699 34.8432 632.976 34.8432V38.0155C649.083 38.0155 661.839 42.5021 671.411 51.3381L673.563 49.007ZM632.976 34.8432H499.552V38.0155H632.976V34.8432ZM497.966 36.4294V145.802H501.138V36.4294H497.966ZM874.711 374.282H873.125V375.868H874.711V374.282ZM887.309 275.79L888.842 276.196L888.844 276.191L887.309 275.79ZM921.094 184.741L919.676 184.032L919.672 184.039L921.094 184.741ZM968.05 104L966.74 103.106L966.737 103.111L968.05 104ZM1019.01 36.4294L1020.23 37.4539L1022.43 34.8432H1019.01V36.4294ZM815.157 36.4294H813.571V38.0155H815.157V36.4294ZM815.157 -18.5433V-20.1295H813.571V-18.5433H815.157ZM1093.46 -18.5433H1095.04V-20.1295H1093.46V-18.5433ZM1093.46 19.823L1094.68 20.8385L1095.04 20.3973V19.823H1093.46ZM1051.65 73.0778L1052.92 74.0376L1052.92 74.0316L1052.93 74.0255L1051.65 73.0778ZM1009.85 134.349L1011.2 135.179V135.179L1009.85 134.349ZM973.777 201.92L972.335 201.258L972.33 201.268L972.326 201.278L973.777 201.92ZM949.153 273.499L950.691 273.889L950.692 273.884L949.153 273.499ZM939.991 374.282V375.868H941.577V374.282H939.991ZM876.297 374.282C876.297 340.438 880.48 307.744 888.842 276.196L885.776 275.383C877.341 307.206 873.125 340.174 873.125 374.282H876.297ZM888.844 276.191C897.216 244.224 908.441 213.975 922.517 185.443L919.672 184.039C905.498 212.77 894.199 243.221 885.775 275.388L888.844 276.191ZM922.513 185.45C936.991 156.494 952.609 129.641 969.364 104.889L966.737 103.111C949.897 127.987 934.211 154.961 919.676 184.032L922.513 185.45ZM969.361 104.893C986.514 79.7355 1003.47 57.2569 1020.23 37.4539L1017.8 35.4048C1000.97 55.3043 983.944 77.8727 966.74 103.106L969.361 104.893ZM1019.01 34.8432H815.157V38.0155H1019.01V34.8432ZM816.744 36.4294V-18.5433H813.571V36.4294H816.744ZM815.157 -16.9571H1093.46V-20.1295H815.157V-16.9571ZM1091.87 -18.5433V19.823H1095.04V-18.5433H1091.87ZM1092.24 18.8076C1078.86 34.8666 1064.9 52.6411 1050.38 72.1301L1052.93 74.0255C1067.42 54.5755 1081.33 36.8469 1094.68 20.8385L1092.24 18.8076ZM1050.39 72.118C1035.85 91.2501 1021.89 111.718 1008.5 133.519L1011.2 135.179C1024.54 113.461 1038.44 93.081 1052.92 74.0376L1050.39 72.118ZM1008.5 133.519C995.106 155.334 983.051 177.914 972.335 201.258L975.218 202.582C985.881 179.352 997.876 156.885 1011.2 135.179L1008.5 133.519ZM972.326 201.278C961.982 224.647 953.745 248.593 947.615 273.114L950.692 273.884C956.778 249.541 964.956 225.767 975.227 202.562L972.326 201.278ZM947.616 273.109C941.476 297.285 938.405 321.657 938.405 346.223H941.577C941.577 321.925 944.615 297.814 950.691 273.889L947.616 273.109ZM938.405 346.223V374.282H941.577V346.223H938.405ZM939.991 372.696H874.711V375.868H939.991V372.696Z" fill="url(#paint0_linear_94_614)" mask="url(#path-1-outside-1_94_614)"/>
<path d="M88.0536 359.966L87.3212 361.373L87.3327 361.379L87.3443 361.385L88.0536 359.966ZM23.9188 292.968L25.3412 292.266V292.266L23.9188 292.968ZM51.4052 24.9767L50.2836 23.8551V23.8551L51.4052 24.9767ZM279.313 -8.80856L278.69 -7.34949L278.698 -7.34627L279.313 -8.80856ZM341.157 41.0104L339.841 41.8955L339.849 41.9086L339.859 41.9216L341.157 41.0104ZM364.062 124.615V126.201H365.648V124.615H364.062ZM298.782 124.615H297.196V126.201H298.782V124.615ZM285.612 71.9326L284.265 72.77V72.77L285.612 71.9326ZM247.818 39.8651L247.164 41.3104L247.177 41.316L247.818 39.8651ZM123.557 45.0188L124.334 46.4014L124.344 46.396L123.557 45.0188ZM81.7547 91.9747L80.3106 91.3183L80.3057 91.3292L80.3008 91.3403L81.7547 91.9747ZM81.7547 264.91L80.3008 265.544L80.3057 265.555L80.3106 265.566L81.7547 264.91ZM123.557 311.865L122.779 313.248L122.79 313.254L122.801 313.26L123.557 311.865ZM249.536 316.446L250.148 317.91L250.163 317.904L250.177 317.897L249.536 316.446ZM287.33 284.379L285.999 283.516L285.99 283.529L285.982 283.542L287.33 284.379ZM301.073 231.697V230.111H299.487V231.697H301.073ZM364.062 231.697H365.648V230.111H364.062V231.697ZM341.157 315.874L339.851 314.973L339.846 314.981L339.841 314.989L341.157 315.874ZM279.313 365.12L278.716 363.65L278.709 363.653L279.313 365.12ZM190.555 379.568C150.652 379.568 116.741 372.537 88.763 358.548L87.3443 361.385C115.866 375.646 150.289 382.74 190.555 382.74V379.568ZM88.786 358.559C61.2386 344.22 40.0915 322.145 25.3412 292.266L22.4965 293.671C37.523 324.109 59.1325 346.7 87.3212 361.373L88.786 358.559ZM25.3412 292.266C10.5938 262.393 3.17239 224.288 3.17239 177.869H-1.33514e-05C-1.33514e-05 224.599 7.46702 263.226 22.4965 293.671L25.3412 292.266ZM3.17239 177.869C3.17239 109.38 19.7255 58.8997 52.5268 26.0983L50.2836 23.8551C16.6596 57.4791 -1.33514e-05 108.927 -1.33514e-05 177.869H3.17239ZM52.5268 26.0983C85.7526 -7.12749 131.882 -23.8287 191.127 -23.8287V-27.0011C131.266 -27.0011 84.2465 -10.1079 50.2836 23.8551L52.5268 26.0983ZM191.127 -23.8287C223.779 -23.8287 252.957 -18.3239 278.69 -7.34952L279.935 -10.2676C253.749 -21.435 224.138 -27.0011 191.127 -27.0011V-23.8287ZM278.698 -7.34627C304.775 3.61365 325.137 20.0289 339.841 41.8955L342.473 40.1253C327.4 17.7084 306.532 0.910965 279.927 -10.2709L278.698 -7.34627ZM339.859 41.9216C354.895 63.349 362.476 90.8739 362.476 124.615H365.648C365.648 90.4031 357.959 62.1919 342.455 40.0993L339.859 41.9216ZM364.062 123.028H298.782V126.201H364.062V123.028ZM300.368 124.615C300.368 103.399 295.932 85.5297 286.959 71.0951L284.265 72.77C292.852 86.5853 297.196 103.837 297.196 124.615H300.368ZM286.959 71.0951C277.997 56.6778 265.142 45.7858 248.459 38.4143L247.177 41.316C263.325 48.4512 275.666 58.9375 284.265 72.77L286.959 71.0951ZM248.472 38.4199C232.193 31.0559 213.256 27.3989 191.7 27.3989V30.5713C212.9 30.5713 231.375 34.1677 247.164 41.3103L248.472 38.4199ZM191.7 27.3989C164.767 27.3989 141.767 32.7863 122.77 43.6416L124.344 46.396C142.759 35.8731 165.188 30.5713 191.7 30.5713V27.3989ZM122.779 43.6363C104.133 54.125 89.9797 70.0464 80.3106 91.3183L83.1987 92.631C92.6174 71.9099 106.332 56.5274 124.334 46.4013L122.779 43.6363ZM80.3008 91.3403C71.023 112.602 66.4253 139.56 66.4253 172.143H69.5977C69.5977 139.828 74.1621 113.34 83.2085 92.609L80.3008 91.3403ZM66.4253 172.143V184.741H69.5977V172.143H66.4253ZM66.4253 184.741C66.4253 217.324 71.023 244.282 80.3008 265.544L83.2085 264.275C74.1621 243.544 69.5977 217.056 69.5977 184.741H66.4253ZM80.3106 265.566C89.9797 286.838 104.133 302.759 122.779 313.248L124.334 310.483C106.332 300.357 92.6174 284.974 83.1987 264.253L80.3106 265.566ZM122.801 313.26C141.417 323.344 164.409 328.34 191.7 328.34V325.168C164.782 325.168 142.345 320.238 124.312 310.471L122.801 313.26ZM191.7 328.34C214.002 328.34 233.498 324.88 250.148 317.91L248.923 314.983C232.743 321.756 213.681 325.168 191.7 325.168V328.34ZM250.177 317.897C266.86 310.526 279.715 299.634 288.677 285.216L285.982 283.542C277.384 297.374 265.043 307.86 248.895 314.996L250.177 317.897ZM288.66 285.242C298.026 270.803 302.659 252.924 302.659 231.697H299.487C299.487 252.463 294.957 269.705 285.999 283.516L288.66 285.242ZM301.073 233.283H364.062V230.111H301.073V233.283ZM362.476 231.697C362.476 265.436 354.896 293.158 339.851 314.973L342.463 316.774C357.958 294.306 365.648 265.91 365.648 231.697H362.476ZM339.841 314.989C325.14 336.851 304.785 353.072 278.716 363.65L279.909 366.59C306.523 355.79 327.397 339.18 342.473 316.759L339.841 314.989ZM278.709 363.653C252.973 374.251 223.597 379.568 190.555 379.568V382.74C223.937 382.74 253.734 377.368 279.917 366.587L278.709 363.653ZM435.418 374.282H433.831V375.868H435.418V374.282ZM435.418 -18.5433V-20.1295H433.831V-18.5433H435.418ZM701.119 -6.51804L700.423 -5.09273L700.436 -5.08614L700.45 -5.0798L701.119 -6.51804ZM739.485 26.6946L738.144 27.5416L738.152 27.5541L738.16 27.5664L739.485 26.6946ZM745.211 118.316L743.775 117.642L743.766 117.661L743.758 117.68L745.211 118.316ZM722.306 149.238L721.282 148.027L721.27 148.037L721.258 148.047L722.306 149.238ZM689.666 168.135L689.151 166.635L688.08 167.003V168.135H689.666ZM689.666 170.425H688.08V171.705L689.331 171.976L689.666 170.425ZM727.46 187.604L726.501 188.868L726.525 188.886L726.55 188.904L727.46 187.604ZM754.374 219.672L752.947 220.365L752.959 220.389L752.972 220.414L754.374 219.672ZM748.075 327.899L746.769 326.998L746.762 327.008L746.755 327.019L748.075 327.899ZM705.127 363.402L705.722 364.873L705.735 364.867L705.748 364.862L705.127 363.402ZM499.552 319.31H497.966V320.896H499.552V319.31ZM681.649 305.566L682.661 306.788L682.665 306.785L681.649 305.566ZM691.384 227.688L689.965 228.398L689.983 228.434L690.003 228.469L691.384 227.688ZM670.197 207.074L669.465 208.481L669.487 208.493L669.51 208.504L670.197 207.074ZM499.552 199.629V198.043H497.966V199.629H499.552ZM499.552 145.802H497.966V147.388H499.552V145.802ZM660.462 138.93L661.196 140.337V140.337L660.462 138.93ZM680.504 119.461L679.138 118.654L679.125 118.678L679.112 118.701L680.504 119.461ZM672.487 50.1725L671.411 51.3381L671.435 51.3595L671.459 51.38L672.487 50.1725ZM499.552 36.4294V34.8432H497.966V36.4294H499.552ZM437.004 374.282V-18.5433H433.831V374.282H437.004ZM435.418 -16.9571H643.856V-20.1295H435.418V-16.9571ZM643.856 -16.9571C665.42 -16.9571 684.262 -12.9854 700.423 -5.09273L701.815 -7.94334C685.145 -16.0844 665.811 -20.1295 643.856 -20.1295V-16.9571ZM700.45 -5.0798C716.605 2.43428 729.154 13.307 738.144 27.5416L740.826 25.8476C731.492 11.0689 718.463 -0.20018 701.788 -7.95628L700.45 -5.0798ZM738.16 27.5664C747.513 41.7836 752.215 58.4604 752.215 77.6589H755.387C755.387 57.9184 750.545 40.619 740.81 25.8228L738.16 27.5664ZM752.215 77.6589C752.215 92.3389 749.393 105.658 743.775 117.642L746.648 118.989C752.483 106.541 755.387 92.7556 755.387 77.6589H752.215ZM743.758 117.68C738.508 129.68 731.017 139.789 721.282 148.027L723.331 150.449C733.446 141.89 741.226 131.384 746.665 118.952L743.758 117.68ZM721.258 148.047C711.872 156.307 701.174 162.502 689.151 166.635L690.182 169.635C702.591 165.369 713.652 158.966 723.354 150.429L721.258 148.047ZM688.08 168.135V170.425H691.252V168.135H688.08ZM689.331 171.976C703.239 174.983 715.622 180.615 726.501 188.868L728.419 186.34C717.156 177.796 704.343 171.976 690.001 168.875L689.331 171.976ZM726.55 188.904C737.768 196.756 746.567 207.23 752.947 220.365L755.8 218.979C749.2 205.39 740.057 194.486 728.369 186.305L726.55 188.904ZM752.972 220.414C759.696 233.115 763.095 248.499 763.095 266.627H766.267C766.267 248.107 762.794 232.188 755.775 218.929L752.972 220.414ZM763.095 266.627C763.095 291.208 757.613 311.293 746.769 326.998L749.38 328.8C760.678 312.437 766.267 291.675 766.267 266.627H763.095ZM746.755 327.019C736.239 342.792 722.168 354.427 704.506 361.943L705.748 364.862C723.972 357.107 738.532 345.073 749.394 328.779L746.755 327.019ZM704.533 361.932C686.81 369.096 666.594 372.696 643.856 372.696V375.868C666.928 375.868 687.559 372.215 705.722 364.873L704.533 361.932ZM643.856 372.696H435.418V375.868H643.856V372.696ZM499.552 320.896H638.702V317.723H499.552V320.896ZM638.702 320.896C656.547 320.896 671.246 316.235 682.661 306.788L680.638 304.344C669.911 313.222 655.978 317.723 638.702 317.723V320.896ZM682.665 306.785C694.609 296.831 700.414 281.023 700.414 259.756H697.242C697.242 280.482 691.595 295.214 680.634 304.348L682.665 306.785ZM700.414 259.756C700.414 246.952 697.892 235.979 692.765 226.908L690.003 228.469C694.802 236.959 697.242 247.364 697.242 259.756H700.414ZM692.803 226.979C688.059 217.491 680.733 210.372 670.883 205.644L669.51 208.504C678.748 212.938 685.547 219.562 689.965 228.398L692.803 226.979ZM670.928 205.666C661.094 200.552 648.797 198.043 634.121 198.043V201.216C648.458 201.216 660.212 203.669 669.465 208.481L670.928 205.666ZM634.121 198.043H499.552V201.216H634.121V198.043ZM497.966 199.629V319.31H501.138V199.629H497.966ZM499.552 147.388H628.967V144.216H499.552V147.388ZM628.967 147.388C641.38 147.388 652.142 145.06 661.196 140.337L659.728 137.524C651.221 141.963 640.987 144.216 628.967 144.216V147.388ZM661.196 140.337C670.244 135.616 677.159 128.905 681.897 120.221L679.112 118.701C674.687 126.814 668.24 133.083 659.728 137.524L661.196 140.337ZM681.87 120.268C686.985 111.611 689.534 101.977 689.534 91.402H686.362C686.362 101.442 683.949 110.514 679.138 118.654L681.87 120.268ZM689.534 91.402C689.534 72.4169 684.297 58.1493 673.516 48.965L671.459 51.38C681.292 59.7565 686.362 72.9752 686.362 91.402H689.534ZM673.563 49.007C663.284 39.5188 649.699 34.8432 632.976 34.8432V38.0155C649.083 38.0155 661.839 42.5021 671.411 51.3381L673.563 49.007ZM632.976 34.8432H499.552V38.0155H632.976V34.8432ZM497.966 36.4294V145.802H501.138V36.4294H497.966ZM874.711 374.282H873.125V375.868H874.711V374.282ZM887.309 275.79L888.842 276.196L888.844 276.191L887.309 275.79ZM921.094 184.741L919.676 184.032L919.672 184.039L921.094 184.741ZM968.05 104L966.74 103.106L966.737 103.111L968.05 104ZM1019.01 36.4294L1020.23 37.4539L1022.43 34.8432H1019.01V36.4294ZM815.157 36.4294H813.571V38.0155H815.157V36.4294ZM815.157 -18.5433V-20.1295H813.571V-18.5433H815.157ZM1093.46 -18.5433H1095.04V-20.1295H1093.46V-18.5433ZM1093.46 19.823L1094.68 20.8385L1095.04 20.3973V19.823H1093.46ZM1051.65 73.0778L1052.92 74.0376L1052.92 74.0316L1052.93 74.0255L1051.65 73.0778ZM1009.85 134.349L1011.2 135.179V135.179L1009.85 134.349ZM973.777 201.92L972.335 201.258L972.33 201.268L972.326 201.278L973.777 201.92ZM949.153 273.499L950.691 273.889L950.692 273.884L949.153 273.499ZM939.991 374.282V375.868H941.577V374.282H939.991ZM876.297 374.282C876.297 340.438 880.48 307.744 888.842 276.196L885.776 275.383C877.341 307.206 873.125 340.174 873.125 374.282H876.297ZM888.844 276.191C897.216 244.224 908.441 213.975 922.517 185.443L919.672 184.039C905.498 212.77 894.199 243.221 885.775 275.388L888.844 276.191ZM922.513 185.45C936.991 156.494 952.609 129.641 969.364 104.889L966.737 103.111C949.897 127.987 934.211 154.961 919.676 184.032L922.513 185.45ZM969.361 104.893C986.514 79.7355 1003.47 57.2569 1020.23 37.4539L1017.8 35.4048C1000.97 55.3043 983.944 77.8727 966.74 103.106L969.361 104.893ZM1019.01 34.8432H815.157V38.0155H1019.01V34.8432ZM816.744 36.4294V-18.5433H813.571V36.4294H816.744ZM815.157 -16.9571H1093.46V-20.1295H815.157V-16.9571ZM1091.87 -18.5433V19.823H1095.04V-18.5433H1091.87ZM1092.24 18.8076C1078.86 34.8666 1064.9 52.6411 1050.38 72.1301L1052.93 74.0255C1067.42 54.5755 1081.33 36.8469 1094.68 20.8385L1092.24 18.8076ZM1050.39 72.118C1035.85 91.2501 1021.89 111.718 1008.5 133.519L1011.2 135.179C1024.54 113.461 1038.44 93.081 1052.92 74.0376L1050.39 72.118ZM1008.5 133.519C995.106 155.334 983.051 177.914 972.335 201.258L975.218 202.582C985.881 179.352 997.876 156.885 1011.2 135.179L1008.5 133.519ZM972.326 201.278C961.982 224.647 953.745 248.593 947.615 273.114L950.692 273.884C956.778 249.541 964.956 225.767 975.227 202.562L972.326 201.278ZM947.616 273.109C941.476 297.285 938.405 321.657 938.405 346.223H941.577C941.577 321.925 944.615 297.814 950.691 273.889L947.616 273.109ZM938.405 346.223V374.282H941.577V346.223H938.405ZM939.991 372.696H874.711V375.868H939.991V372.696Z" fill="url(#paint1_linear_94_614)" mask="url(#path-1-outside-1_94_614)"/>
</g>
<defs>
<linearGradient id="paint0_linear_94_614" x1="246.331" y1="-885.173" x2="1349.33" y2="-341.573" gradientUnits="userSpaceOnUse">
<stop stop-color="#00B4FD"/>
<stop offset="1" stop-color="#003ACE"/>
</linearGradient>
<linearGradient id="paint1_linear_94_614" x1="419.206" y1="351.072" x2="595.738" y2="-106.708" gradientUnits="userSpaceOnUse">
<stop stop-color="#02171F"/>
<stop offset="1" stop-opacity="0"/>
</linearGradient>
</defs>
</svg>
